<?xml version="1.0" encoding="UTF-8"?>
<svg id="Layer_2" data-name="Layer 2" xmlns="http://www.w3.org/2000/svg" viewBox="0 0 250.54 129.98">
  <defs>
    <style>
      .cls-1 {
        fill: #a48f5e;
      }

      .cls-1, .cls-2 {
        stroke-width: 0px;
      }

      .cls-2 {
        fill: #004c46;
      }
    </style>
  </defs>
  <g id="Layer_1-2" data-name="Layer 1">
    <g>
      <path class="cls-2" d="m35.5,31.69c-16.4,0-30.28,13.53-31.01,29.84H.78c.51-13.69,8.74-25.76,21.29-30.98l1.85-.76-1.86-.74C9.67,24.14,1.31,12.97,0,0c0,0,6.66,28,35.5,28l2.87,1.84-2.87,1.84Z"/>
      <path class="cls-1" d="m27.48,9.96c0,2-1.62,3.61-3.62,3.61s-3.61-1.61-3.61-3.61,1.62-3.62,3.61-3.62,3.62,1.62,3.62,3.62"/>
      <path class="cls-1" d="m38.07,103.13c-7.49,0-13.58,5.95-13.58,13.26s5.96,13.58,13.58,13.58h3.27v-2.85h-3.27c-5.74,0-10.41-4.82-10.41-10.73s4.57-10.42,10.41-10.42h10.42v21.22h3.11v-24.06s-13.44,0-13.53,0"/>
      <path class="cls-1" d="m129.28,108.24v-10.71c0-1.61-1.31-2.92-2.92-2.92h-.03v32.59h2.95v-10.64c0-5.75,4.72-10.25,10.74-10.25h11v20.89h2.95v-23.85s-13.96,0-13.96,0c-4.18,0-8.19,1.83-10.74,4.89"/>
      <path class="cls-1" d="m175.34,103.13c-7.49,0-13.58,5.95-13.58,13.26s5.96,13.58,13.58,13.58h3.49v-2.85h-3.49c-5.74,0-10.41-4.82-10.41-10.73s4.57-10.42,10.41-10.42h10.41v21.22h3.11v-24.06s-13.44,0-13.52,0"/>
      <rect class="cls-1" x="247.53" y="94.61" width="3.01" height="3.85"/>
      <path class="cls-1" d="m62.57,97.59v29.61h3v-32.59s-.03,0-.03,0c-1.65,0-2.98,1.34-2.98,2.98"/>
      <path class="cls-1" d="m198.91,97.58v29.62s3,0,3,0v-32.59h-.03c-1.64,0-2.97,1.33-2.97,2.97"/>
      <path class="cls-1" d="m234.53,97.44v5.69s-10.67,0-10.67,0c-7.49,0-13.58,5.95-13.58,13.26s5.96,13.58,13.58,13.58h3.48v-2.85h-3.48c-5.74,0-10.42-4.82-10.42-10.73s4.57-10.41,10.42-10.41h10.41v21.22h3.11v-32.59h-.03c-1.57,0-2.83,1.27-2.83,2.83"/>
      <path class="cls-1" d="m247.57,103.1h-.03v24.1s3,0,3,0v-21.13c0-1.64-1.33-2.97-2.97-2.97"/>
      <path class="cls-1" d="m104.86,111.4c5.5-2.29,9.47-7.17,10.78-12.93.25-1.11.42-2.26.46-3.43v-.22s.02-.21.02-.21h-.04c-2.52,0-2.97,2.5-2.98,2.5-1.35,7.27-7.82,12.89-15.33,12.89h-9.02v-12.68c0-1.49-1.22-2.71-2.71-2.71h-.03v32.59h2.74v-14.45h9.02c8.19,0,15.07,6.05,15.99,14.08l.04.37h2.75l-.05-.46c-.7-6.89-5.16-12.77-11.65-15.33"/>
      <rect class="cls-1" x="175.59" y="50.89" width="3.01" height="3.86"/>
      <rect class="cls-1" x="45.39" y="87.76" width="3.01" height="3.85"/>
      <rect class="cls-1" x="41.35" y="87.76" width="3.01" height="3.85"/>
      <path class="cls-1" d="m70.42,58.56c-7.49,0-13.58,5.95-13.58,13.26v8.74h-18.77c-5.74,0-10.41-4.82-10.41-10.74v-11.27h-.04c-1.73,0-3.13,1.4-3.13,3.13v8.14c0,7.62,5.96,13.58,13.58,13.58h21.94v-11.58c0-5.84,4.57-10.42,10.41-10.42h5.27v21.99h3.11v-24.85s-8.31.01-8.38.01"/>
      <path class="cls-1" d="m214.99,53.79c0-1.65-1.34-2.98-2.98-2.98h-.03v32.59h3.01v-29.61Z"/>
      <path class="cls-1" d="m130.65,53.8v26.76s-15.18,0-15.18,0v-22.01s-13.46.01-13.52.01c-7.49,0-13.58,5.95-13.58,13.34v.42h2.75l.42-.07v-.42c0-5.84,4.57-10.41,10.42-10.41h10.41v19.15h-24v2.84h45.3v-32.59h-.03c-1.64,0-2.98,1.33-2.98,2.98"/>
      <path class="cls-1" d="m198.83,53.79v26.76s-10.21,0-10.21,0v-22.01s-13.46.01-13.53.01c-7.49,0-13.58,5.95-13.58,13.33v.42h2.75l.41-.08v-.42c0-5.84,4.58-10.41,10.42-10.41h10.41v19.16h-28c-5.75,0-10.42-4.82-10.42-10.74v-15.87c0-1.73-1.4-3.13-3.14-3.13h-.03v19.01c0,7.62,5.97,13.58,13.63,13.58h44.28v-32.59h-.03c-1.65,0-2.98,1.33-2.98,2.98"/>
    </g>
  </g>
</svg>