<?xml version="1.0" encoding="UTF-8"?>
<svg id="Layer_2" data-name="Layer 2" xmlns="http://www.w3.org/2000/svg" viewBox="0 0 280.82 145.68">
  <defs>
    <style>
      .cls-1 {
        fill: #fff;
        stroke-width: 0px;
      }
    </style>
  </defs>
  <g id="Layer_1-2" data-name="Layer 1">
    <g>
      <path class="cls-1" d="m39.79,35.52c-18.38,0-33.93,15.16-34.76,33.44H.87c.58-15.35,9.8-28.87,23.87-34.73l2.07-.86-2.08-.83C10.84,27.05,1.47,14.54,0,0c0,0,7.46,31.39,39.79,31.39l3.22,2.07-3.22,2.06Z"/>
      <path class="cls-1" d="m30.8,11.16c0,2.24-1.82,4.04-4.05,4.04s-4.05-1.81-4.05-4.04,1.82-4.05,4.05-4.05,4.05,1.81,4.05,4.05"/>
      <path class="cls-1" d="m42.67,115.6c-8.39,0-15.22,6.67-15.22,14.86s6.68,15.22,15.22,15.22h3.67v-3.19h-3.67c-6.44,0-11.67-5.4-11.67-12.03s5.12-11.67,11.67-11.67h11.67v23.78h3.49v-26.97s-15.07,0-15.16,0"/>
      <path class="cls-1" d="m144.9,121.32v-12c0-1.81-1.47-3.27-3.28-3.27h-.03v36.52h3.31v-11.93c0-6.44,5.29-11.49,12.04-11.49h12.33v23.42h3.31v-26.73s-15.64,0-15.64,0c-4.68,0-9.18,2.05-12.04,5.48"/>
      <path class="cls-1" d="m196.53,115.6c-8.39,0-15.22,6.67-15.22,14.86s6.69,15.22,15.22,15.22h3.91v-3.19h-3.91c-6.44,0-11.67-5.4-11.67-12.03s5.13-11.67,11.67-11.67h11.67v23.78h3.49v-26.97s-15.06,0-15.16,0"/>
      <rect class="cls-1" x="277.44" y="106.04" width="3.37" height="4.32"/>
      <path class="cls-1" d="m70.13,109.38v33.19h3.37v-36.52s-.03,0-.03,0c-1.85,0-3.34,1.5-3.34,3.34"/>
      <path class="cls-1" d="m222.94,109.37v33.2s3.37,0,3.37,0v-36.52h-.04c-1.84,0-3.33,1.49-3.33,3.33"/>
      <path class="cls-1" d="m262.87,109.22l.02,6.38h-11.97c-8.39,0-15.22,6.67-15.22,14.86s6.68,15.22,15.22,15.22h3.9v-3.19h-3.9c-6.44,0-11.67-5.4-11.67-12.03s5.13-11.67,11.67-11.67h11.67v23.78h3.49v-36.52h-.03c-1.75,0-3.18,1.42-3.18,3.17"/>
      <path class="cls-1" d="m277.49,115.56h-.03v27.01s3.36,0,3.36,0v-23.68c0-1.84-1.49-3.33-3.33-3.33"/>
      <path class="cls-1" d="m117.53,124.86c6.16-2.56,10.62-8.03,12.09-14.49.28-1.25.47-2.53.51-3.85v-.25s.02-.23.02-.23h-.04c-2.82,0-3.33,2.8-3.34,2.8-1.51,8.15-8.76,14.45-17.18,14.45h-10.11v-14.22c0-1.67-1.36-3.04-3.04-3.04h-.03v36.52h3.07v-16.2h10.11c9.18,0,16.89,6.78,17.92,15.78l.05.41h3.08l-.05-.52c-.78-7.73-5.79-14.31-13.05-17.19"/>
      <rect class="cls-1" x="196.81" y="57.04" width="3.37" height="4.32"/>
      <rect class="cls-1" x="50.88" y="98.36" width="3.37" height="4.32"/>
      <rect class="cls-1" x="46.35" y="98.36" width="3.37" height="4.32"/>
      <path class="cls-1" d="m78.93,65.64c-8.39,0-15.22,6.67-15.22,14.86v9.8h-21.04c-6.43,0-11.67-5.4-11.67-12.04v-12.63h-.04c-1.93,0-3.51,1.57-3.51,3.51v9.12c0,8.54,6.69,15.22,15.22,15.22h24.59v-12.98c0-6.54,5.13-11.67,11.67-11.67h5.9v24.65h3.49v-27.85s-9.31.01-9.39.01"/>
      <path class="cls-1" d="m240.97,60.29c0-1.85-1.5-3.34-3.34-3.34h-.03v36.53h3.37v-33.18Z"/>
      <path class="cls-1" d="m146.44,60.3v29.99s-17.01,0-17.01,0v-24.67s-15.08.01-15.16.01c-8.4,0-15.23,6.67-15.23,14.95v.47h3.08l.47-.08v-.47c0-6.54,5.13-11.67,11.67-11.67h11.67v21.47h-26.9v3.19h50.78v-36.53h-.04c-1.85,0-3.34,1.5-3.34,3.35"/>
      <path class="cls-1" d="m222.85,60.29v30s-11.44,0-11.44,0v-24.67s-15.09.01-15.16.01c-8.4,0-15.23,6.67-15.23,14.95v.47h3.08l.46-.08v-.47c0-6.54,5.13-11.67,11.68-11.67h11.67v21.47h-31.38c-6.44,0-11.67-5.4-11.67-12.04v-17.79c0-1.94-1.57-3.51-3.51-3.51h-.04v21.3c0,8.54,6.69,15.22,15.28,15.22h49.63v-36.53h-.03c-1.85,0-3.34,1.5-3.34,3.34"/>
    </g>
  </g>
</svg>