<svg xmlns="http://www.w3.org/2000/svg" xmlns:xlink="http://www.w3.org/1999/xlink" width="114.551" height="76.228" viewBox="0 0 114.551 76.228"><defs><style>.a{fill:#fff;}.b{fill:#273777;}.c{fill:#a9aaac;}.d{fill:#ccd433;}.e{fill:#71b545;}.f{fill:#26b3ba;}.g{fill:#59b15a;}.h{fill:#2785c6;}.i{fill:#1d3a6c;}.j{clip-path:url(#a);}</style><clipPath id="a"><rect class="a" width="2.822" height="2.659"/></clipPath></defs><g transform="translate(0 3.815)"><g transform="translate(0 -0.098)"><path class="a" d="M132.065,17.343a4.953,4.953,0,0,1-1.147-.135,11.891,11.891,0,0,1-1.313-.407l.4-1.231a6.277,6.277,0,0,0,1.087.382,4.712,4.712,0,0,0,1.071.112,2.7,2.7,0,0,0,1.627-.431,1.681,1.681,0,0,0,.58-1.439v-1.27l-.433.9H133.6a8.189,8.189,0,0,1-2.045-.248,5.132,5.132,0,0,1-1.7-.765,3.765,3.765,0,0,1-1.16-1.329,4.125,4.125,0,0,1-.427-1.942,4.02,4.02,0,0,1,.382-1.75A4.122,4.122,0,0,1,129.739,6.4a5.275,5.275,0,0,1,1.683-.918,6.726,6.726,0,0,1,2.174-.337h2.061v8.919a3.32,3.32,0,0,1-.854,2.389A3.676,3.676,0,0,1,132.065,17.343Zm.957-10.9a3.952,3.952,0,0,0-1.264.224,3.667,3.667,0,0,0-1.118.631,3.165,3.165,0,0,0-.789.987,2.714,2.714,0,0,0-.3,1.263,2.887,2.887,0,0,0,.274,1.279,2.723,2.723,0,0,0,.756.943,3.423,3.423,0,0,0,1.119.583,4.5,4.5,0,0,0,1.36.2h1.306V6.807l.735-.365Z" transform="translate(-30.157 -4.928)"/><path class="a" d="M115.028,17.214H91.543a2.72,2.72,0,0,1-1.167-.224,1.886,1.886,0,0,1-.765-.647c-.022-.032-.042-.068-.062-.1l-.018-.031v.958H86.854a5.88,5.88,0,0,1-4.312-1.787A6.031,6.031,0,0,1,80.9,11.191v-.034a6.054,6.054,0,0,1,1.657-4.207,5.908,5.908,0,0,1,4.328-1.8h3.48v8.821a6.466,6.466,0,0,0,.056.918,1.724,1.724,0,0,0,.193.608.819.819,0,0,0,.37.335,1.51,1.51,0,0,0,.6.1h22.15V5.149h1.289V17.213ZM86.853,6.36a4.572,4.572,0,0,0-4.585,4.56c0,.068,0,.136,0,.2v.033a4.66,4.66,0,0,0,4.518,4.8l.1,0H89.4a3.09,3.09,0,0,1-.2-.636,6.842,6.842,0,0,1-.121-1.351V6.755l.789-.391Z" transform="translate(-19.021 -4.929)"/><path class="a" d="M69.743,13.987l.561,1.473-8.18-10.33H60.844V17.14h1.331V8.088l-.757-1.75,8.567,10.8h1.088V5.131h-1.33Z" transform="translate(-14.305 -4.925)"/><path class="a" d="M92.115,42.262l7.426-7.037V30.392H79.7v5.5H89.869l3.779-2.412-9.422,9.409,1.008,4.082h2.685c3.609,0,5.748,1.333,5.748,3.707v.083c0,2.166-1.72,3.54-4.153,3.54-2.979,0-5.076-1.249-7.09-3.5l-4.448,4.208a14.294,14.294,0,0,0,11.454,5.04c6.545,0,10.573-4.04,10.573-9.538v-.083c0-5.415-3.9-7.5-7.888-8.163" transform="translate(-18.333 -10.864)"/><path class="a" d="M47.946,17.28a6.075,6.075,0,0,1-4.455-1.846,6.229,6.229,0,0,1-1.7-4.329v-.034a6.257,6.257,0,0,1,1.713-4.346,6.3,6.3,0,0,1,8.928-.018,6.227,6.227,0,0,1,1.695,4.328v.035a6.253,6.253,0,0,1-1.712,4.346A6.106,6.106,0,0,1,47.946,17.28Zm0-11.167a4.725,4.725,0,0,0-4.738,4.711c0,.07,0,.142,0,.212v.035a4.813,4.813,0,0,0,4.666,4.956l.1,0a4.725,4.725,0,0,0,4.737-4.712c0-.07,0-.14,0-.21v-.035a4.813,4.813,0,0,0-4.667-4.955l-.1,0Z" transform="translate(-9.826 -4.861)"/><path class="a" d="M124.518,59.893A15.782,15.782,0,0,1,113.336,55.5a14.736,14.736,0,0,1-4.384-10.6v-.084a14.8,14.8,0,0,1,4.426-10.647,16.434,16.434,0,0,1,22.4-.041,14.738,14.738,0,0,1,4.385,10.6v.083a14.808,14.808,0,0,1-4.426,10.648A15.846,15.846,0,0,1,124.518,59.893Zm0-24.241a8.751,8.751,0,0,0-8.811,9.079v.083a8.936,8.936,0,0,0,8.7,9.162c.063,0,.127,0,.19,0a8.751,8.751,0,0,0,8.811-9.08v-.084a8.935,8.935,0,0,0-8.705-9.159c-.063,0-.126,0-.19,0Z" transform="translate(-25.617 -10.71)"/><path class="a" d="M36.932,17.14H38.3V5.131H36.932Z" transform="translate(-8.683 -4.925)"/><path class="a" d="M6.4,56.087l1.247-.955,6.418-4.919c5.2-4,7.72-6.414,7.72-11.287v-.083c0-5.457-4.028-9-10.111-9-5.245,0-8.056,2.125-10.951,6.043l4.531,3.623c2.182-2.669,3.735-3.917,6-3.917,2.308,0,3.944,1.332,3.944,3.791,0,2.415-1.426,4-5.076,7L.348,54.337v5.082H22.081V53.878h-11.2Z" transform="translate(-0.081 -10.736)"/><path class="a" d="M6.41,17.224l5.2-12.093H10.142l-4.11,9.842.132,1.319-.341-.819L2.264,6.919,1.521,5.131H0L5.2,17.224Z" transform="translate(0.001 -4.925)"/><path class="a" d="M17.6,17.14h1.365V5.131H17.6Z" transform="translate(-4.138 -4.925)"/><path class="a" d="M27.261,10.428c-2.661-.566-3.283-1.2-3.283-2.333V8.062c0-1.081,1-1.938,2.575-1.938a5.335,5.335,0,0,1,3.49,1.3l.795-1.043a6.339,6.339,0,0,0-4.25-1.476c-2.295,0-3.977,1.39-3.977,3.277v.034c0,1.973,1.278,2.864,4.06,3.465,2.54.535,3.145,1.166,3.145,2.282V14c0,1.184-1.071,2.041-2.7,2.041a5.785,5.785,0,0,1-4.147-1.7l-.843,1a7.1,7.1,0,0,0,4.941,1.921c2.4,0,4.13-1.339,4.13-3.4v-.034c0-1.836-1.244-2.813-3.939-3.4" transform="translate(-5.202 -4.871)"/><path class="a" d="M7.8,88.3h.757V87.55H7.8Z" transform="translate(-1.833 -24.303)"/><path class="a" d="M70.9,84.887H62.555a4.479,4.479,0,0,1-1.162-.148,2.851,2.851,0,0,1-.968-.448,2.241,2.241,0,0,1-.664-.765,2.35,2.35,0,0,1-.249-1.117,2.284,2.284,0,0,1,.217-.987,2.331,2.331,0,0,1,.612-.792,2.908,2.908,0,0,1,.958-.521,3.988,3.988,0,0,1,1.254-.187h1.161v4.235h2.931V79.92h.737v4.235h2.783V79.92H70.9v4.966Zm-8.654-4.235a2.281,2.281,0,0,0-.737.123,2.058,2.058,0,0,0-.64.356,1.822,1.822,0,0,0-.451.558,1.531,1.531,0,0,0-.171.718,1.677,1.677,0,0,0,.157.737,1.613,1.613,0,0,0,.428.549,1.946,1.946,0,0,0,.636.343,2.491,2.491,0,0,0,.779.118h.728v-3.5Z" transform="translate(-13.992 -22.509)"/><path class="a" d="M53.788,84.4h.737V77.83h-.737Z" transform="translate(-12.646 -22.018)"/><path class="a" d="M64.013,78.582h.757V77.83h-.757Z" transform="translate(-15.05 -22.018)"/><path class="a" d="M73.428,88.29h.757v-.751h-.757Z" transform="translate(-17.264 -24.301)"/><path class="a" d="M9.488,88.3h.757V87.55H9.488Z" transform="translate(-2.23 -24.303)"/><path class="a" d="M20.827,86.41a2.848,2.848,0,0,1-.659-.076,6.753,6.753,0,0,1-.751-.229l.229-.705a3.664,3.664,0,0,0,.622.22,2.7,2.7,0,0,0,.612.063,1.534,1.534,0,0,0,.93-.247.963.963,0,0,0,.334-.829V84.4H21.7a4.687,4.687,0,0,1-1.171-.142,2.938,2.938,0,0,1-.972-.438,2.146,2.146,0,0,1-.664-.76,2.354,2.354,0,0,1-.244-1.112,2.3,2.3,0,0,1,.222-1,2.342,2.342,0,0,1,.62-.8,3.032,3.032,0,0,1,.963-.526,3.864,3.864,0,0,1,1.244-.192h1.182v4.236h2.553l-1.3-3.065a6.331,6.331,0,0,1,.612-.485,4.507,4.507,0,0,1,.682-.394,4.432,4.432,0,0,1,.719-.26,2.709,2.709,0,0,1,1.428,0,4.129,4.129,0,0,1,.71.265,5.589,5.589,0,0,1,.682.394,6.36,6.36,0,0,1,.627.48L28.3,83.664h3.872V79.886h.737v3.778h1.428a1.582,1.582,0,0,0,.47-.069,1.1,1.1,0,0,0,.4-.219,1.066,1.066,0,0,0,.275-.384,1.441,1.441,0,0,0,.1-.574V79.886h.739v2.589a1.254,1.254,0,0,0,.12.5,1.3,1.3,0,0,0,.306.407,1.46,1.46,0,0,0,.459.275,1.665,1.665,0,0,0,.589.1,1.324,1.324,0,0,0,1.033-.382,1.463,1.463,0,0,0,.341-1.011V79.886h.737v2.36a3.107,3.107,0,0,1-.065.688,1.359,1.359,0,0,0,.581.548,2.318,2.318,0,0,0,1.014.183h1.207V77.83h.737V84.4H41.25v-.008a2.813,2.813,0,0,1-.53-.065,2.082,2.082,0,0,1-.512-.192,1.3,1.3,0,0,1-.345-.27,2,2,0,0,1-.229-.306,1.578,1.578,0,0,1-.714.705,2.554,2.554,0,0,1-1.129.229,2.312,2.312,0,0,1-1.1-.246,1.875,1.875,0,0,1-.728-.688,1.9,1.9,0,0,1-.678.612,1.965,1.965,0,0,1-.954.229H22.882v.138a1.9,1.9,0,0,1-.489,1.368A2.1,2.1,0,0,1,20.827,86.41Zm6.036-6.241a2.668,2.668,0,0,0-.935.164,2.927,2.927,0,0,0-.871.522l1.152,2.809h1.315l1.153-2.809a2.964,2.964,0,0,0-.829-.49A2.619,2.619,0,0,0,26.863,80.17Zm-5.465,0a2.221,2.221,0,0,0-.747.128,2.1,2.1,0,0,0-.64.361,1.806,1.806,0,0,0-.451.562,1.563,1.563,0,0,0-.17.723,1.649,1.649,0,0,0,.153.733,1.556,1.556,0,0,0,.433.54,1.975,1.975,0,0,0,.641.334,2.608,2.608,0,0,0,.779.114h.747V80.17Z" transform="translate(-4.385 -22.018)"/><path class="a" d="M4.5,78.582h.757V77.83H4.5Z" transform="translate(-1.057 -22.018)"/><path class="a" d="M101.993,78.582h.757V77.83h-.757Z" transform="translate(-23.98 -22.018)"/><path class="a" d="M93.455,84.4h.737V77.83h-.737Z" transform="translate(-21.973 -22.018)"/><path class="a" d="M62.325,78.582h.757V77.83h-.757Z" transform="translate(-14.653 -22.018)"/><path class="a" d="M15.833,82.007a2.707,2.707,0,0,0-.115-.805,1.68,1.68,0,0,0-.354-.64,1.99,1.99,0,0,0-.659-.481,2.195,2.195,0,0,0-.889-.159h-.544v.731h.645a1.165,1.165,0,0,1,.507.114,1.191,1.191,0,0,1,.4.3,1.109,1.109,0,0,1,.216.421,2.175,2.175,0,0,1,.06.549v2.123H11.64v.732h4.193Z" transform="translate(-2.736 -22.509)"/><path class="a" d="M144.45,84.4h.737V77.83h-.737Z" transform="translate(-33.963 -22.018)"/><path class="a" d="M103.681,78.582h.757V77.83h-.757Z" transform="translate(-24.377 -22.018)"/><path class="a" d="M125.926,85.229a2.57,2.57,0,0,1-1.071-.224,2.667,2.667,0,0,1-.854-.612h-3.246a2.627,2.627,0,0,1-.88.612,2.77,2.77,0,0,1-1.1.22A2.582,2.582,0,0,1,117.7,85a2.664,2.664,0,0,1-.853-.612H102.222a4.5,4.5,0,0,1-1.16-.147,2.864,2.864,0,0,1-.968-.447,2.244,2.244,0,0,1-.664-.763,2.345,2.345,0,0,1-.249-1.114,2.278,2.278,0,0,1,.217-.987,2.321,2.321,0,0,1,.612-.792,2.9,2.9,0,0,1,.958-.521,3.983,3.983,0,0,1,1.254-.187h1.163v4.235h6.82V82.544a2.376,2.376,0,0,0-.055-.53.991.991,0,0,0-.213-.422,1.055,1.055,0,0,0-.41-.287,1.535,1.535,0,0,0-.6-.106h-3.761a1.29,1.29,0,0,1-.216-.329,1.578,1.578,0,0,1-.115-.411l1.416-2.628h.8l-1.388,2.637h3.262a2.322,2.322,0,0,1,.912.153,1.87,1.87,0,0,1,.645.477,1.627,1.627,0,0,1,.35.644,2.872,2.872,0,0,1,.111.8v1.122h2.349V77.83h.738v5.834h2.341a3.065,3.065,0,0,1-.161-.517,2.572,2.572,0,0,1-.06-.562,2.65,2.65,0,0,1,1.595-2.461,2.56,2.56,0,0,1,1.032-.21,2.763,2.763,0,0,1,1.065.206,2.594,2.594,0,0,1,1.42,1.408,2.71,2.71,0,0,1,.207,1.057,2.575,2.575,0,0,1-.229,1.079h2.285a3.214,3.214,0,0,1-.161-.517,2.571,2.571,0,0,1-.06-.562,2.647,2.647,0,0,1,1.593-2.461,2.564,2.564,0,0,1,1.033-.21,2.743,2.743,0,0,1,1.064.206,2.654,2.654,0,0,1,.853.563,2.612,2.612,0,0,1,.567.845,2.711,2.711,0,0,1,.207,1.057,2.575,2.575,0,0,1-.229,1.079h2.536V77.83h.737V84.4h-3.748a2.63,2.63,0,0,1-.88.612A2.773,2.773,0,0,1,125.926,85.229Zm0-4.583a1.83,1.83,0,0,0-1.355.57,1.932,1.932,0,0,0-.392.612,1.967,1.967,0,0,0-.143.747,1.932,1.932,0,0,0,.535,1.35,1.891,1.891,0,0,0,.6.411,1.864,1.864,0,0,0,.751.153,2.085,2.085,0,0,0,.769-.141,1.856,1.856,0,0,0,1.035-1.01,1.9,1.9,0,0,0,.153-.765,1.987,1.987,0,0,0-.148-.773,1.852,1.852,0,0,0-.41-.612,1.956,1.956,0,0,0-.617-.4A2.057,2.057,0,0,0,125.926,80.646Zm-7.152,0a1.837,1.837,0,0,0-1.353.571,1.937,1.937,0,0,0-.393.612,2,2,0,0,0-.142.747,1.939,1.939,0,0,0,.538,1.352,1.891,1.891,0,0,0,.6.411,1.863,1.863,0,0,0,.75.153,2.088,2.088,0,0,0,.77-.141,1.883,1.883,0,0,0,1.184-1.771,1.987,1.987,0,0,0-.148-.773,1.82,1.82,0,0,0-.41-.612,1.956,1.956,0,0,0-.617-.4A2.06,2.06,0,0,0,118.774,80.646Zm-16.856-.486a2.26,2.26,0,0,0-.737.123,2.058,2.058,0,0,0-.64.356,1.834,1.834,0,0,0-.451.558,1.522,1.522,0,0,0-.171.718,1.691,1.691,0,0,0,.157.737,1.62,1.62,0,0,0,.428.548,1.932,1.932,0,0,0,.636.343,2.515,2.515,0,0,0,.779.119h.727v-3.5Z" transform="translate(-23.319 -22.018)"/><path class="a" d="M7.871,84.888H3.041A4.506,4.506,0,0,1,1.88,84.74a2.869,2.869,0,0,1-.967-.448,2.241,2.241,0,0,1-.664-.765A2.36,2.36,0,0,1,0,82.409a2.283,2.283,0,0,1,.216-.987,2.348,2.348,0,0,1,.612-.792,2.92,2.92,0,0,1,.959-.521,3.983,3.983,0,0,1,1.254-.187H4.2v4.235H7.134V79.921h.737v4.966ZM2.737,80.653A2.281,2.281,0,0,0,2,80.776a2.062,2.062,0,0,0-.641.356,1.834,1.834,0,0,0-.451.558,1.531,1.531,0,0,0-.171.718,1.677,1.677,0,0,0,.157.737,1.632,1.632,0,0,0,.428.549,1.961,1.961,0,0,0,.636.343,2.492,2.492,0,0,0,.779.118h.727v-3.5Z" transform="translate(0.001 -22.51)"/><path class="a" d="M69.9,88.3h.757V87.55H69.9Z" transform="translate(-16.436 -24.303)"/><path class="a" d="M68.216,88.3h.757V87.55h-.757Z" transform="translate(-16.039 -24.303)"/><path class="a" d="M76.223,86.41a2.263,2.263,0,0,1-.6-.083l.193-.705a1.514,1.514,0,0,0,.2.046,1.339,1.339,0,0,0,.175.009.85.85,0,0,0,.346-.06.455.455,0,0,0,.212-.191.966.966,0,0,0,.111-.348,3.668,3.668,0,0,0,.031-.526V79.428h.738v4.237h2.746l-1.3-3.065a6.549,6.549,0,0,1,.612-.485,4.523,4.523,0,0,1,.683-.394,4.3,4.3,0,0,1,.713-.261,2.822,2.822,0,0,1,.72-.1,2.746,2.746,0,0,1,.71.1,4.036,4.036,0,0,1,.709.265,5.509,5.509,0,0,1,.683.394,6.7,6.7,0,0,1,.626.48l-1.289,3.065h3.136V77.83h.738V84.4H77.633v.153a3.884,3.884,0,0,1-.07.776,1.578,1.578,0,0,1-.235.585,1.076,1.076,0,0,1-.437.37A1.553,1.553,0,0,1,76.223,86.41Zm5.584-6.241a2.668,2.668,0,0,0-.935.164,2.959,2.959,0,0,0-.871.522l1.153,2.809H82.47l1.152-2.809a2.965,2.965,0,0,0-.829-.49,2.627,2.627,0,0,0-.986-.2Z" transform="translate(-17.78 -22.018)"/><path class="a" d="M2.812,78.582h.757V77.83H2.812Z" transform="translate(-0.66 -22.018)"/><path class="a" d="M5.51,92.7H4.374l-2.5,2.629V92.7H.944v5.228h.925V96.415l.821-.837,1.8,2.353H5.61L3.323,94.948Z" transform="translate(-0.221 -25.515)"/><path class="a" d="M8.145,97.931H9.07V92.7H8.145Z" transform="translate(-1.914 -25.515)"/><path class="a" d="M14.9,96.318,12.076,92.7h-.858V97.93h.91V94.211l2.907,3.719h.773V92.7H14.9Z" transform="translate(-2.637 -25.515)"/><path class="a" d="M21.4,95.781h1.347v.978a2.162,2.162,0,0,1-1.272.4,1.75,1.75,0,0,1-1.793-1.707,1.574,1.574,0,0,1,0-.159v-.015a1.773,1.773,0,0,1,1.7-1.846h.011a2.071,2.071,0,0,1,1.474.56l.591-.691a2.857,2.857,0,0,0-2.026-.71,2.677,2.677,0,0,0-2.716,2.637V95.3a2.6,2.6,0,0,0,2.507,2.691c.074,0,.149,0,.223,0a3.364,3.364,0,0,0,2.2-.818V94.983H21.4Z" transform="translate(-4.399 -25.486)"/><path class="a" d="M28.792,97.929H26.829V92.7h1.963a2.616,2.616,0,0,1,2.793,2.427c0,.057.006.116.006.174v.014a2.622,2.622,0,0,1-2.624,2.62C28.909,97.935,28.851,97.933,28.792,97.929Zm-1.037-4.391v3.554h1.037a1.718,1.718,0,0,0,1.825-1.6c0-.051,0-.1,0-.155v-.019a1.725,1.725,0,0,0-1.669-1.779c-.053,0-.106,0-.159,0Z" transform="translate(-6.307 -25.513)"/><path class="a" d="M36.933,97.991a2.656,2.656,0,0,1-2.744-2.568c0-.04,0-.08,0-.12v-.015a2.685,2.685,0,0,1,.774-1.9,2.767,2.767,0,0,1,1.986-.8,2.658,2.658,0,0,1,2.745,2.569c0,.04,0,.08,0,.119v.015a2.678,2.678,0,0,1-.774,1.9A2.768,2.768,0,0,1,36.933,97.991Zm0-4.562a1.77,1.77,0,0,0-1.776,1.765c0,.026,0,.053,0,.079v.015a1.807,1.807,0,0,0,1.752,1.859h.037a1.772,1.772,0,0,0,1.778-1.765c0-.027,0-.053,0-.08v-.015a1.786,1.786,0,0,0-1.708-1.861l-.083,0Z" transform="translate(-8.038 -25.487)"/><path class="a" d="M45.478,95.175l-1.6-2.472H42.89v5.228h.91V94.2l1.648,2.448h.03l1.662-2.463v3.748h.925V92.7H47.08Z" transform="translate(-10.084 -25.515)"/><path class="a" d="M56.821,97.991a2.656,2.656,0,0,1-2.744-2.568c0-.04,0-.08,0-.12v-.015a2.685,2.685,0,0,1,.774-1.9,2.767,2.767,0,0,1,1.986-.8,2.658,2.658,0,0,1,2.745,2.569c0,.04,0,.08,0,.119v.015a2.678,2.678,0,0,1-.774,1.9A2.768,2.768,0,0,1,56.821,97.991Zm0-4.562a1.77,1.77,0,0,0-1.776,1.765c0,.026,0,.053,0,.079v.015A1.807,1.807,0,0,0,56.8,97.148h.037a1.772,1.772,0,0,0,1.778-1.765c0-.027,0-.053,0-.08v-.015A1.786,1.786,0,0,0,56.9,93.427l-.083,0Z" transform="translate(-12.714 -25.487)"/><path class="a" d="M62.78,97.931h.925V95.8h2.656v-.836H63.705V93.54H66.7V92.7H62.78Z" transform="translate(-14.76 -25.515)"/><path class="a" d="M74.107,94.872c-1.008-.239-1.249-.418-1.249-.821v-.015c0-.344.316-.62.857-.62a2.4,2.4,0,0,1,1.43.535l.5-.692a2.932,2.932,0,0,0-1.911-.657A1.606,1.606,0,0,0,71.942,94c0,.038-.008.076-.01.115v.015c0,.964.632,1.293,1.753,1.561.978.224,1.189.426,1.189.8v.015c0,.4-.362.658-.932.658a2.431,2.431,0,0,1-1.663-.681l-.557.658a3.261,3.261,0,0,0,2.2.837c1.106,0,1.881-.583,1.881-1.561V96.4c0-.866-.58-1.261-1.693-1.53" transform="translate(-16.863 -25.489)"/><path class="a" d="M78.679,97.919h-.948l2.317-5.265h.857l2.317,5.264h-.978l-.535-1.262H79.22l-.541,1.263Zm1.782-4.167-.9,2.091h1.814Z" transform="translate(-18.276 -25.503)"/><path class="a" d="M89.2,95.714c0,.963-.5,1.453-1.324,1.453s-1.332-.52-1.332-1.491V92.7h-.925v3.011a2.064,2.064,0,0,0,2.242,2.3,2.1,2.1,0,0,0,2.265-2.345V92.7H89.2Z" transform="translate(-20.127 -25.515)"/><path class="a" d="M95.247,97.929H93.284V92.7h1.963a2.615,2.615,0,0,1,2.792,2.426c0,.058.006.116.006.174v.014a2.622,2.622,0,0,1-2.624,2.62C95.363,97.935,95.3,97.933,95.247,97.929ZM94.21,93.538v3.554h1.037a1.718,1.718,0,0,0,1.825-1.6c0-.051,0-.1,0-.155v-.019a1.725,1.725,0,0,0-1.669-1.779c-.053,0-.106,0-.159,0Z" transform="translate(-21.933 -25.513)"/><path class="a" d="M101.043,97.931h.925V92.7h-.925Z" transform="translate(-23.757 -25.515)"/><path class="a" d="M107.4,97.919h-.948l2.317-5.265h.857l2.317,5.264h-.978l-.535-1.262h-2.488l-.541,1.263Zm1.782-4.167-.9,2.091H110.1Z" transform="translate(-25.029 -25.503)"/><path class="a" d="M115.7,97.931h-.925V92.7h2.347a2.135,2.135,0,0,1,1.521.522,1.575,1.575,0,0,1,.436,1.127v.015a1.57,1.57,0,0,1-1.257,1.584l1.421,1.977h-1.09l-1.294-1.822H115.7V97.93Zm0-4.392v1.755h1.354c.659,0,1.084-.343,1.084-.873V94.4c0-.551-.4-.866-1.091-.866Z" transform="translate(-26.986 -25.514)"/><path class="a" d="M122.457,97.919h-.948l2.317-5.265h.858L127,97.918h-.978l-.535-1.262H123l-.541,1.263Zm1.782-4.167-.9,2.091h1.814Z" transform="translate(-28.569 -25.503)"/><path class="a" d="M132.27,97.93h-2.438V92.7h2.363a1.911,1.911,0,0,1,1.377.464,1.166,1.166,0,0,1,.353.866v.015a1.235,1.235,0,0,1-.753,1.164,1.281,1.281,0,0,1,1.046,1.27V96.5C134.218,97.393,133.49,97.93,132.27,97.93Zm-1.527-2.245v1.431h1.537c.646,0,1.016-.262,1.016-.717v-.015c0-.459-.375-.7-1.083-.7Zm0-2.165V94.9h1.264c.631,0,.994-.259.994-.709V94.18c0-.416-.346-.664-.926-.664Z" transform="translate(-30.526 -25.514)"/><path class="a" d="M137.063,97.931h.926V92.7h-.926Z" transform="translate(-32.226 -25.515)"/><path class="a" d="M140.376,97.919h-.948l2.317-5.265h.857l2.318,5.264h-.979l-.535-1.262h-2.488l-.541,1.263Zm1.782-4.167-.9,2.091h1.814Z" transform="translate(-32.782 -25.503)"/><path class="b" d="M51.275,27.23l1.488,1.417-1.428,1.476-1.487-1.417Z" transform="translate(-11.72 -10.121)"/><path class="c" d="M56.165,28.706l1.487,1.417,1.427-1.476L57.592,27.23Z" transform="translate(-13.205 -10.121)"/><path class="d" d="M53.427,31.238l1.159,1.105L55.7,31.2l-1.158-1.105Z" transform="translate(-12.561 -10.793)"/><path class="e" d="M58.978,32.063l1.158,1.106,1.111-1.147-1.158-1.106Z" transform="translate(-13.866 -10.987)"/><path class="d" d="M50.951,33.536l1.158,1.106L53.22,33.5l-1.156-1.106Z" transform="translate(-11.979 -11.334)"/><path class="f" d="M56.031,33.71l1.157,1.106L58.3,33.669l-1.158-1.106Z" transform="translate(-13.174 -11.374)"/><path class="e" d="M54.044,35.547l.815.776.782-.809-.815-.776Z" transform="translate(-12.706 -11.886)"/><path class="g" d="M58.062,36.343l.815.776.782-.809-.815-.776Z" transform="translate(-13.651 -12.073)"/><path class="h" d="M66.836,28.409l.459,2.51,2.524-.459-.459-2.51Z" transform="translate(-15.714 -10.29)"/><path class="i" d="M62.525,29.809l.371,2.013,2.028-.369-.371-2.013Z" transform="translate(-14.7 -10.64)"/><path class="f" d="M67.647,33.479l.371,2.013,2.027-.369-.37-2.012Z" transform="translate(-15.905 -11.503)"/><path class="d" d="M63.993,33.887l.288,1.567,1.579-.287-.29-1.567Z" transform="translate(-15.046 -11.618)"/><path class="c" d="M68.008,37.78l.288,1.567,1.579-.287-.29-1.567Z" transform="translate(-15.99 -12.534)"/><path class="f" d="M60.9,34.721l.288,1.567L62.768,36l-.289-1.568Z" transform="translate(-14.318 -11.814)"/><path class="e" d="M64.647,37.4l.288,1.567,1.579-.286-.29-1.568Z" transform="translate(-15.199 -12.445)"/><path class="c" d="M62.017,37.678l.2,1.1,1.111-.2-.2-1.1Z" transform="translate(-14.581 -12.53)"/><path class="g" d="M64.806,40.659l.2,1.1,1.111-.2-.2-1.1Z" transform="translate(-15.237 -13.231)"/><path class="b" d="M76.322,39.295l-1.1,2.3,2.321,1.1,1.1-2.3Z" transform="translate(-17.685 -12.957)"/><path class="f" d="M72.084,37.9,71.2,39.751l1.861.879.886-1.848Z" transform="translate(-16.74 -12.63)"/><path class="e" d="M74.075,43.854,73.189,45.7l1.862.878.886-1.848Z" transform="translate(-17.208 -14.029)"/><path class="d" d="M70.945,42.043l-.688,1.439,1.453.685.688-1.439Z" transform="translate(-16.518 -13.603)"/><path class="d" d="M71.906,47.532l-.688,1.439,1.449.685.692-1.439Z" transform="translate(-16.744 -14.894)"/><path class="h" d="M67.945,40.922l-.688,1.439,1.453.684.688-1.439Z" transform="translate(-15.813 -13.34)"/><path class="c" d="M69.4,45.275l-.688,1.439,1.449.685.692-1.439Z" transform="translate(-16.156 -14.363)"/><path class="e" d="M67.188,43.949,66.7,44.962l1.02.481.486-1.012Z" transform="translate(-15.683 -14.052)"/><path class="f" d="M67.692,47.985,67.208,49l1.019.481.486-1.012Z" transform="translate(-15.802 -15.001)"/><path class="h" d="M77.6,53.716,75.351,54.94l1.235,2.24,2.253-1.224Z" transform="translate(-17.716 -16.348)"/><path class="f" d="M75.069,50.086l-1.807.984.994,1.794,1.8-.984Z" transform="translate(-17.225 -15.495)"/><path class="f" d="M73.177,56.069l-1.807.984.994,1.794,1.8-.984Z" transform="translate(-16.78 -16.901)"/><path class="b" d="M71.781,52.747l-1.407.765.772,1.4,1.408-.765Z" transform="translate(-16.546 -16.12)"/><path class="g" d="M69.326,57.758l-1.407.765.772,1.4,1.407-.765Z" transform="translate(-15.969 -17.298)"/><path class="i" d="M70.008,50.1l-1.407.765.772,1.4,1.408-.765Z" transform="translate(-16.129 -15.497)"/><path class="d" d="M68.625,54.473l-1.407.765.772,1.4,1.407-.765Z" transform="translate(-15.804 -16.526)"/><path class="c" d="M67.688,52.074l-.991.535.543.987.987-.539Z" transform="translate(-15.681 -15.962)"/><path class="f" d="M65.719,55.64l-.991.539.542.983.987-.539Z" transform="translate(-15.218 -16.8)"/><path class="e" d="M70.242,66.264l-2.551-.314-.315,2.532,2.55.314Z" transform="translate(-15.841 -19.225)"/><path class="i" d="M70.389,61.787l-2.046-.252-.253,2.031,2.045.252Z" transform="translate(-16.009 -18.187)"/><path class="f" d="M65.327,65.54l-2.045-.252-.254,2.031,2.046.252Z" transform="translate(-14.819 -19.069)"/><path class="e" d="M66.211,61.982l-1.592-.2-.2,1.582,1.592.2Z" transform="translate(-15.146 -18.246)"/><path class="c" d="M61.267,64.619l-1.592-.2L59.476,66l1.593.2Z" transform="translate(-13.984 -18.866)"/><path class="c" d="M66.336,58.8l-1.593-.2-.2,1.582,1.592.2Z" transform="translate(-15.176 -17.498)"/><path class="e" d="M62.634,61.548l-1.593-.2-.2,1.582,1.592.2Z" transform="translate(-14.305 -18.143)"/><path class="c" d="M63.347,59l-1.121-.138-.138,1.112,1.12.138Z" transform="translate(-14.598 -17.558)"/><path class="c" d="M59.648,60.749l-1.121-.138-.138,1.112,1.121.138Z" transform="translate(-13.728 -17.969)"/><path class="d" d="M56.737,71.914l-1.883-1.736-1.748,1.869,1.883,1.735Z" transform="translate(-12.486 -20.219)"/><path class="e" d="M56.283,25.2,54.4,23.465l-1.748,1.869,1.883,1.736Z" transform="translate(-12.379 -9.235)"/><path class="f" d="M59.585,68.357l-1.511-1.392-1.4,1.5,1.511,1.391Z" transform="translate(-13.324 -19.463)"/><path class="e" d="M53.269,68.461l-1.512-1.392-1.4,1.5,1.511,1.391Z" transform="translate(-11.839 -19.488)"/><path class="h" d="M56.163,66.078l-1.176-1.084-1.091,1.167,1.176,1.084Z" transform="translate(-12.671 -19)"/><path class="d" d="M50.6,65.345l-1.176-1.084-1.092,1.167,1.177,1.085Z" transform="translate(-11.363 -18.828)"/><path class="d" d="M58.138,63.573l-1.176-1.084L55.87,63.656l1.176,1.084Z" transform="translate(-13.136 -18.411)"/><path class="c" d="M53.519,63.649l-1.176-1.084-1.091,1.167,1.176,1.085Z" transform="translate(-12.05 -18.429)"/><path class="i" d="M55.684,61.988l-.831-.765-.765.821.828.765Z" transform="translate(-12.717 -18.113)"/><path class="c" d="M51.653,61.258l-.831-.765-.765.821.827.765Z" transform="translate(-11.769 -17.942)"/><path class="h" d="M42.575,68.907l-.5-2.5-2.52.5.5,2.5Z" transform="translate(-9.299 -19.332)"/><path class="f" d="M47.047,67.616l-.4-2.007-2.021.4.4,2.006Z" transform="translate(-10.491 -19.144)"/><path class="e" d="M41.863,64.031l-.4-2.007-2.021.4.4,2.006Z" transform="translate(-9.272 -18.302)"/><path class="d" d="M45.676,63.725l-.315-1.563-1.574.312.316,1.563Z" transform="translate(-10.295 -18.334)"/><path class="b" d="M48.754,62.841l-.315-1.563-1.574.312.316,1.563Z" transform="translate(-11.018 -18.126)"/><path class="h" d="M44.963,60.219l-.315-1.563-1.573.313.314,1.563Z" transform="translate(-10.127 -17.51)"/><path class="e" d="M47.761,60.07l-.221-1.1-1.107.22.221,1.1Z" transform="translate(-10.917 -17.584)"/><path class="c" d="M44.923,57.136l-.221-1.1-1.107.22.221,1.1Z" transform="translate(-10.25 -16.894)"/><path class="f" d="M32.783,58.054l1.065-2.321-2.339-1.058L30.444,57Z" transform="translate(-7.157 -16.574)"/><path class="d" d="M37.253,59.581l.854-1.862-1.875-.848-.855,1.862Z" transform="translate(-8.317 -17.09)"/><path class="h" d="M35.161,53.663l.855-1.862-1.876-.849-.854,1.863Z" transform="translate(-7.826 -15.698)"/><path class="f" d="M38.509,55.608l.665-1.453L37.714,53.5l-.665,1.453Z" transform="translate(-8.71 -16.297)"/><path class="c" d="M41.064,60.347l.665-1.453-1.46-.657L39.6,59.69Z" transform="translate(-9.311 -17.411)"/><path class="b" d="M37.456,50.135l.665-1.453-1.459-.658-.666,1.453Z" transform="translate(-8.463 -15.01)"/><path class="g" d="M41.527,56.678l.665-1.453-1.459-.658-.666,1.453Z" transform="translate(-9.42 -16.548)"/><path class="d" d="M40,52.35l.665-1.453-1.46-.658-.665,1.453Z" transform="translate(-9.06 -15.531)"/><path class="i" d="M42.432,53.831l.468-1.02-1.028-.465-.468,1.02Z" transform="translate(-9.734 -16.026)"/><path class="e" d="M41.86,49.8l.468-1.02L41.3,48.318l-.468,1.02Z" transform="translate(-9.6 -15.079)"/><path class="f" d="M31.234,43.632l2.233-1.261-1.274-2.218-2.232,1.264Z" transform="translate(-7.044 -13.159)"/><path class="e" d="M34.044,47.429l1.791-1.013-1.022-1.778-1.79,1.014Z" transform="translate(-7.764 -14.214)"/><path class="i" d="M35.836,41.416,37.627,40.4,36.6,38.624l-1.79,1.014Z" transform="translate(-8.185 -12.8)"/><path class="h" d="M37.479,44.9l1.394-.79-.795-1.384-1.394.789Z" transform="translate(-8.625 -13.765)"/><path class="e" d="M39.851,39.852l1.394-.79-.795-1.384-1.394.789Z" transform="translate(-9.182 -12.577)"/><path class="f" d="M39.295,47.524l1.394-.789-.795-1.384-1.394.789Z" transform="translate(-9.052 -14.381)"/><path class="d" d="M40.607,43.125,42,42.335l-.795-1.384-1.394.789Z" transform="translate(-9.36 -13.347)"/><path class="c" d="M41.785,45.706l.981-.555-.559-.974-.981.555Z" transform="translate(-9.693 -14.105)"/><path class="e" d="M43.695,42.108l.981-.555-.56-.974-.981.555Z" transform="translate(-10.141 -13.259)"/><path class="e" d="M38.588,31.162l2.555.272.275-2.536-2.556-.272Z" transform="translate(-9.072 -10.449)"/><path class="c" d="M38.69,35.81l2.05.218.219-2.035-2.05-.218Z" transform="translate(-9.096 -11.659)"/><path class="f" d="M43.688,31.975l2.05.218.219-2.035-2.05-.218Z" transform="translate(-10.271 -10.758)"/><path class="d" d="M43.021,35.7l1.6.17.171-1.584-1.6-.17Z" transform="translate(-10.115 -11.74)"/><path class="h" d="M47.921,32.982l1.6.17.171-1.584-1.6-.171Z" transform="translate(-11.267 -11.1)"/><path class="f" d="M42.949,38.881l1.6.17.171-1.585-1.6-.169Z" transform="translate(-10.098 -12.488)"/><path class="e" d="M46.6,36.075l1.6.17.171-1.585-1.6-.169Z" transform="translate(-10.957 -11.828)"/><path class="i" d="M46.1,38.793l1.122.119.121-1.114-1.123-.12Z" transform="translate(-10.838 -12.577)"/><path class="c" d="M49.767,36.984l1.124.119.119-1.114-1.123-.119Z" transform="translate(-11.701 -12.152)"/><path class="a" d="M60.593,48.247a5.309,5.309,0,0,0-1.019-.438,6.093,6.093,0,0,0-2.8-.2,6.839,6.839,0,0,0-1.213.311l-.121.043a6.586,6.586,0,0,0-.642.285q-.274.139-.548.3a13.057,13.057,0,0,0-1.224.834A25.862,25.862,0,0,1,52.9,42.9a.009.009,0,0,1,.01-.008l.005,0c.968.606.7,2.3.493,2.783,0,.01.011.016.018.008a2.975,2.975,0,0,0,.37-3.378c-.005-.009.007-.018.015-.011a2.749,2.749,0,0,1,.437.443,2.623,2.623,0,0,1,.548,1.438,4.193,4.193,0,0,1,0,.65c0,.05-.008.1-.011.144,0,.008.005.009.011.008s.005,0,.006,0a2.76,2.76,0,0,0,0-2.536,3.175,3.175,0,0,0-.548-.745c-.068-.07-.14-.139-.218-.207a.009.009,0,1,1,.008-.017h0a2.009,2.009,0,0,1,.21.062,2.055,2.055,0,0,1,.548.286,2.264,2.264,0,0,1,.765,1.023,2.571,2.571,0,0,1,.177.935.01.01,0,0,0,.01.01.01.01,0,0,0,.009-.01,2.32,2.32,0,0,0-.2-1.912,2.25,2.25,0,0,0-.765-.734,2.437,2.437,0,0,0-.548-.243,1.547,1.547,0,0,0-.262-.058c-.011,0-.008-.017,0-.019.09-.008.177-.013.26-.014a2.684,2.684,0,0,1,.548.044,2.009,2.009,0,0,1,.765.3,1.6,1.6,0,0,1,.512.545c0,.009.019,0,.018-.007a1.53,1.53,0,0,0-.529-1.024,1.969,1.969,0,0,0-.765-.4,2.21,2.21,0,0,0-.548-.076,1.727,1.727,0,0,0-.684.122c-.008,0-.016-.006-.011-.015a1.3,1.3,0,0,1,.7-.489,1.579,1.579,0,0,1,.548-.065,1.227,1.227,0,0,1,.449.1.009.009,0,1,0,.011-.015,1.715,1.715,0,0,0-.459-.37,1.475,1.475,0,0,0-.548-.178,1.377,1.377,0,0,0-1.319.65.01.01,0,0,1-.014,0l0,0c-.063-.113-.125-.238-.182-.369a4.344,4.344,0,0,1-.3-.99.008.008,0,0,0-.017,0,4.388,4.388,0,0,1-.3.994,4.039,4.039,0,0,1-.181.365.009.009,0,0,1-.012,0l0,0a1.417,1.417,0,0,0-1.953-.444,1.4,1.4,0,0,0-.372.341.009.009,0,0,0,.011.015h0a1.445,1.445,0,0,1,1.691.448.009.009,0,0,1-.011.015,2.021,2.021,0,0,0-2.171.535,1.516,1.516,0,0,0-.361.846c0,.011.013.016.018.007a1.477,1.477,0,0,1,.337-.411,2.227,2.227,0,0,1,1.747-.466.01.01,0,0,1,0,.019,2.31,2.31,0,0,0-1.749,1.392,2.48,2.48,0,0,0-.021,1.555.009.009,0,0,0,.018,0v-.043a2.3,2.3,0,0,1,1.7-2.265.01.01,0,0,1,.011.008.012.012,0,0,1,0,.008,2.809,2.809,0,0,0-.773,3.482.009.009,0,0,0,.012,0,.008.008,0,0,0,.005-.009,2.851,2.851,0,0,1,.973-2.677c.008-.006.021,0,.015.011a2.974,2.974,0,0,0,.369,3.378c.007.008.021,0,.018-.008-.2-.484-.473-2.177.493-2.783a.009.009,0,0,1,.013,0l0,.005a25.863,25.863,0,0,1-.125,6.482,9.928,9.928,0,0,0-2.412-1.42c-.1-.037-.2-.071-.3-.1a6.416,6.416,0,0,0-2.279-.322,5.915,5.915,0,0,0-2.352.592c-.091.045-.168.087-.229.122a.023.023,0,0,0,.019.041c.07-.022.14-.041.209-.06A6.53,6.53,0,0,1,46.831,48a7.043,7.043,0,0,1,2.279.612,12.058,12.058,0,0,1,2.712,1.759,29.8,29.8,0,0,1-2.711,2.3c-.03.017-.059.034-.086.047a.636.636,0,0,0-1.131.223.608.608,0,0,0,.123.545.918.918,0,0,0,1.094.158,15.027,15.027,0,0,0,3-2.487l.306-.278.306.276c.551.5,1.056.991,1.517,1.407.19.171.372.33.548.473a4.812,4.812,0,0,0,.765.526.994.994,0,0,0,1.213-.027c.019-.016.037-.031.056-.05a.7.7,0,0,0,.124-.545.61.61,0,0,0-.18-.306.622.622,0,0,0-.944.084,2.3,2.3,0,0,1-.262-.162,8.786,8.786,0,0,1-.765-.612c-.172-.153-.355-.314-.548-.488-.376-.339-.787-.714-1.224-1.094a15.186,15.186,0,0,1,1.224-.918q.268-.18.548-.347.372-.219.765-.407a7.813,7.813,0,0,1,1.213-.459,6.44,6.44,0,0,1,2.8-.173,7.091,7.091,0,0,1,1,.233.023.023,0,0,0,.028-.016.023.023,0,0,0-.008-.024" transform="translate(-10.402 -12.784)"/></g><path class="a" d="M89,4.185h1.53V2.655H89Z" transform="translate(-20.925 -4.439)"/><path class="a" d="M92,4.185h1.53V2.655H92Z" transform="translate(-21.631 -4.439)"/><path class="a" d="M124,24.185h1.53v-1.53H124Z" transform="translate(-29.154 -9.142)"/><path class="a" d="M120,24.185h1.53v-1.53H120Z" transform="translate(-28.215 -9.142)"/><path class="a" d="M143.039,17.121a1.88,1.88,0,0,0,.765-.647,2.756,2.756,0,0,0,.41-1.023,6.923,6.923,0,0,0,.122-1.353V5.149h-1.292V14.1a6.357,6.357,0,0,1-.057.918,1.72,1.72,0,0,1-.193.607.81.81,0,0,1-.371.336,1.5,1.5,0,0,1-.6.1,2.088,2.088,0,0,1-.66-.093l-.334,1.231a3.969,3.969,0,0,0,1.046.144,2.72,2.72,0,0,0,1.167-.224" transform="translate(-33.111 -5.026)"/><path class="a" d="M134.239,0h2.822V2.659h-2.822Z" transform="translate(-31.563 -3.815)"/><g transform="translate(102.677 -3.815)"><rect class="a" width="2.822" height="2.659"/><g class="j"><g transform="translate(-0.007 -0.003)"><path class="a" d="M137.059,1.672H135.29v-.3a.593.593,0,0,1,.1-.375.523.523,0,0,1,.4-.111h.885V0h-.909a1.568,1.568,0,0,0-1.136.382,1.668,1.668,0,0,0-.394,1.231V2.658h2.822Z" transform="translate(-134.23 0.005)"/></g></g></g></g></svg>